<svg xmlns="http://www.w3.org/2000/svg" viewBox="0 0 900 440.6363636363636" role="img"><title>C02 移动影音柜架 柜体正立面，标注单位毫米</title><style>text{font-family:system-ui,-apple-system,"PingFang SC","Microsoft YaHei",sans-serif;fill:#253630}.dim{fill:#68756d;font-size:13px}</style><rect width="100%" height="100%" fill="#fbfcfa"/><text x="55" y="35" text-anchor="start" font-size="18" class="">C02  /  移动影音柜架</text><text x="55" y="59" text-anchor="start" font-size="13" class="dim">正立面 · 分区名义尺寸 / 单位 mm</text><rect x="90" y="95" width="720" height="235.636" rx="0" fill="#ded7c9" stroke="#747e72" stroke-width="1.3"/><path d="M90 75 L810 75" fill="none" stroke="#93a097" stroke-width="1" stroke-dasharray=""/><text x="450" y="66" text-anchor="middle" font-size="14" class="">1100</text><path d="M66 95 L66 330.636" fill="none" stroke="#93a097" stroke-width="1" stroke-dasharray=""/><text x="55" y="212.818" text-anchor="end" font-size="13" class="">360</text><rect x="93" y="98" width="354" height="229.636" rx="0" fill="#f6f3eb" stroke="#9a9d92" stroke-width="1.3"/><rect x="95" y="219.364" width="350" height="99.4909" rx="0" fill="#eef0e9" stroke="#b5bbae" stroke-width="1.3"/><text x="270" y="273.109" text-anchor="middle" font-size="14" class="">遥控器 / 手柄</text><text x="442" y="233.364" text-anchor="end" font-size="10" class="dim">152</text><rect x="95" y="106.782" width="350" height="112.582" rx="0" fill="#f9f8f2" stroke="#b5bbae" stroke-width="1.3"/><text x="270" y="167.073" text-anchor="middle" font-size="14" class="">播放器 / 通风层</text><text x="442" y="120.782" text-anchor="end" font-size="10" class="dim">172</text><path d="M90 350.636 L450 350.636" fill="none" stroke="#93a097" stroke-width="1" stroke-dasharray=""/><text x="270" y="372.636" text-anchor="middle" font-size="14" class="">550</text><rect x="453" y="98" width="354" height="229.636" rx="0" fill="#f6f3eb" stroke="#9a9d92" stroke-width="1.3"/><rect x="455" y="106.782" width="350" height="212.073" rx="0" fill="#eef0e9" stroke="#b5bbae" stroke-width="1.3"/><text x="630" y="216.818" text-anchor="middle" font-size="14" class="">支架与收线 / 检修</text><text x="802" y="120.782" text-anchor="end" font-size="10" class="dim">324</text><path d="M450 350.636 L810 350.636" fill="none" stroke="#93a097" stroke-width="1" stroke-dasharray=""/><text x="630" y="372.636" text-anchor="middle" font-size="14" class="">550</text><text x="90" y="403.636" text-anchor="start" font-size="14" class="">深度 550 mm · 柜底离地 100 mm</text><text x="90" y="426.636" text-anchor="start" font-size="12" class="dim">分区高度含结构占位；板厚、五金、管线与净空须深化，非生产下料图。</text></svg>