<svg xmlns="http://www.w3.org/2000/svg" viewBox="0 0 900 781.0" role="img"><title>C03 工作室归档柜 柜体正立面，标注单位毫米</title><style>text{font-family:system-ui,-apple-system,"PingFang SC","Microsoft YaHei",sans-serif;fill:#253630}.dim{fill:#68756d;font-size:13px}</style><rect width="100%" height="100%" fill="#fbfcfa"/><text x="55" y="35" text-anchor="start" font-size="18" class="">C03  /  工作室归档柜</text><text x="55" y="59" text-anchor="start" font-size="13" class="dim">正立面 · 分区名义尺寸 / 单位 mm</text><rect x="90" y="95" width="720" height="576" rx="0" fill="#ded7c9" stroke="#747e72" stroke-width="1.3"/><path d="M90 75 L810 75" fill="none" stroke="#93a097" stroke-width="1" stroke-dasharray=""/><text x="450" y="66" text-anchor="middle" font-size="14" class="">3000</text><path d="M66 95 L66 671" fill="none" stroke="#93a097" stroke-width="1" stroke-dasharray=""/><text x="55" y="383" text-anchor="end" font-size="13" class="">2400</text><rect x="93" y="98" width="186" height="570" rx="0" fill="#f6f3eb" stroke="#9a9d92" stroke-width="1.3"/><rect x="95" y="455" width="182" height="216" rx="0" fill="#eef0e9" stroke="#b5bbae" stroke-width="1.3"/><text x="186" y="567" text-anchor="middle" font-size="14" class="">打印机独立小车</text><text x="274" y="469" text-anchor="end" font-size="10" class="dim">900</text><rect x="95" y="323" width="182" height="132" rx="0" fill="#f9f8f2" stroke="#b5bbae" stroke-width="1.3"/><text x="186" y="393" text-anchor="middle" font-size="14" class="">移出使用净空</text><text x="274" y="337" text-anchor="end" font-size="10" class="dim">550</text><rect x="95" y="215" width="182" height="108" rx="0" fill="#eef0e9" stroke="#b5bbae" stroke-width="1.3"/><text x="186" y="273" text-anchor="middle" font-size="14" class="">纸张 / 备用耗材</text><text x="274" y="229" text-anchor="end" font-size="10" class="dim">450</text><rect x="95" y="99.32" width="182" height="115.68" rx="0" fill="#f9f8f2" stroke="#b5bbae" stroke-width="1.3"/><text x="186" y="161.16" text-anchor="middle" font-size="14" class="">低频包装</text><text x="274" y="113.32" text-anchor="end" font-size="10" class="dim">482</text><path d="M90 691 L282 691" fill="none" stroke="#93a097" stroke-width="1" stroke-dasharray=""/><text x="186" y="713" text-anchor="middle" font-size="14" class="">800</text><rect x="285" y="98" width="186" height="570" rx="0" fill="#f6f3eb" stroke="#9a9d92" stroke-width="1.3"/><rect x="287" y="551" width="182" height="100.8" rx="0" fill="#eef0e9" stroke="#b5bbae" stroke-width="1.3"/><text x="378" y="605.4" text-anchor="middle" font-size="14" class="">重要原件 / 上锁</text><text x="466" y="565" text-anchor="end" font-size="10" class="dim">420</text><rect x="287" y="455" width="182" height="96" rx="0" fill="#f9f8f2" stroke="#b5bbae" stroke-width="1.3"/><text x="378" y="507" text-anchor="middle" font-size="14" class="">近期文件</text><text x="466" y="469" text-anchor="end" font-size="10" class="dim">400</text><rect x="287" y="383" width="182" height="72" rx="0" fill="#eef0e9" stroke="#b5bbae" stroke-width="1.3"/><text x="378" y="423" text-anchor="middle" font-size="14" class="">待处理 / 待扫描</text><text x="466" y="397" text-anchor="end" font-size="10" class="dim">300</text><rect x="287" y="287" width="182" height="96" rx="0" fill="#f9f8f2" stroke="#b5bbae" stroke-width="1.3"/><text x="378" y="339" text-anchor="middle" font-size="14" class="">设备说明书</text><text x="466" y="301" text-anchor="end" font-size="10" class="dim">400</text><rect x="287" y="191" width="182" height="96" rx="0" fill="#eef0e9" stroke="#b5bbae" stroke-width="1.3"/><text x="378" y="243" text-anchor="middle" font-size="14" class="">合同与保修票据</text><text x="466" y="205" text-anchor="end" font-size="10" class="dim">400</text><rect x="287" y="99.32" width="182" height="91.68" rx="0" fill="#f9f8f2" stroke="#b5bbae" stroke-width="1.3"/><text x="378" y="149.16" text-anchor="middle" font-size="14" class="">年度归档</text><text x="466" y="113.32" text-anchor="end" font-size="10" class="dim">382</text><path d="M282 691 L474 691" fill="none" stroke="#93a097" stroke-width="1" stroke-dasharray=""/><text x="378" y="713" text-anchor="middle" font-size="14" class="">800</text><rect x="477" y="98" width="186" height="570" rx="0" fill="#f6f3eb" stroke="#9a9d92" stroke-width="1.3"/><rect x="479" y="606.2" width="182" height="45.6" rx="0" fill="#eef0e9" stroke="#b5bbae" stroke-width="1.3"/><text x="570" y="633" text-anchor="middle" font-size="14" class="">D01 连接线</text><text x="658" y="620.2" text-anchor="end" font-size="10" class="dim">190</text><rect x="479" y="560.6" width="182" height="45.6" rx="0" fill="#f9f8f2" stroke="#b5bbae" stroke-width="1.3"/><text x="570" y="587.4" text-anchor="middle" font-size="14" class="">D02 充电器</text><text x="658" y="574.6" text-anchor="end" font-size="10" class="dim">190</text><rect x="479" y="515" width="182" height="45.6" rx="0" fill="#eef0e9" stroke="#b5bbae" stroke-width="1.3"/><text x="570" y="541.8" text-anchor="middle" font-size="14" class="">D03 存储配件</text><text x="658" y="529" text-anchor="end" font-size="10" class="dim">190</text><rect x="479" y="455" width="182" height="60" rx="0" fill="#f9f8f2" stroke="#b5bbae" stroke-width="1.3"/><text x="570" y="489" text-anchor="middle" font-size="14" class="">D04 工具</text><text x="658" y="469" text-anchor="end" font-size="10" class="dim">250</text><rect x="479" y="323" width="182" height="132" rx="0" fill="#eef0e9" stroke="#b5bbae" stroke-width="1.3"/><text x="570" y="393" text-anchor="middle" font-size="14" class="">当前电子设备</text><text x="658" y="337" text-anchor="end" font-size="10" class="dim">550</text><rect x="479" y="215" width="182" height="108" rx="0" fill="#f9f8f2" stroke="#b5bbae" stroke-width="1.3"/><text x="570" y="273" text-anchor="middle" font-size="14" class="">备用设备</text><text x="658" y="229" text-anchor="end" font-size="10" class="dim">450</text><rect x="479" y="99.32" width="182" height="115.68" rx="0" fill="#eef0e9" stroke="#b5bbae" stroke-width="1.3"/><text x="570" y="161.16" text-anchor="middle" font-size="14" class="">保留包装</text><text x="658" y="113.32" text-anchor="end" font-size="10" class="dim">482</text><path d="M474 691 L666 691" fill="none" stroke="#93a097" stroke-width="1" stroke-dasharray=""/><text x="570" y="713" text-anchor="middle" font-size="14" class="">800</text><rect x="669" y="98" width="138" height="570" rx="0" fill="#f6f3eb" stroke="#9a9d92" stroke-width="1.3"/><rect x="671" y="407" width="134" height="244.8" rx="0" fill="#eef0e9" stroke="#b5bbae" stroke-width="1.3"/><text x="738" y="533.4" text-anchor="middle" font-size="14" class="">旅行包 / 空箱</text><text x="802" y="421" text-anchor="end" font-size="10" class="dim">1020</text><rect x="671" y="311" width="134" height="96" rx="0" fill="#f9f8f2" stroke="#b5bbae" stroke-width="1.3"/><text x="738" y="363" text-anchor="middle" font-size="14" class="">随身数码包</text><text x="802" y="325" text-anchor="end" font-size="10" class="dim">400</text><rect x="671" y="215" width="134" height="96" rx="0" fill="#eef0e9" stroke="#b5bbae" stroke-width="1.3"/><text x="738" y="267" text-anchor="middle" font-size="14" class="">备用收纳</text><text x="802" y="229" text-anchor="end" font-size="10" class="dim">400</text><rect x="671" y="99.32" width="134" height="115.68" rx="0" fill="#f9f8f2" stroke="#b5bbae" stroke-width="1.3"/><text x="738" y="161.16" text-anchor="middle" font-size="14" class="">低频旅行用品</text><text x="802" y="113.32" text-anchor="end" font-size="10" class="dim">482</text><path d="M666 691 L810 691" fill="none" stroke="#93a097" stroke-width="1" stroke-dasharray=""/><text x="738" y="713" text-anchor="middle" font-size="14" class="">600</text><text x="90" y="744" text-anchor="start" font-size="14" class="">深度 650 mm</text><text x="90" y="767" text-anchor="start" font-size="12" class="dim">分区高度含结构占位；板厚、五金、管线与净空须深化，非生产下料图。</text></svg>