<svg xmlns="http://www.w3.org/2000/svg" viewBox="0 0 900 497.5" role="img"><title>C07 悬浮洗漱柜 柜体正立面，标注单位毫米</title><style>text{font-family:system-ui,-apple-system,"PingFang SC","Microsoft YaHei",sans-serif;fill:#253630}.dim{fill:#68756d;font-size:13px}</style><rect width="100%" height="100%" fill="#fbfcfa"/><text x="55" y="35" text-anchor="start" font-size="18" class="">C07  /  悬浮洗漱柜</text><text x="55" y="59" text-anchor="start" font-size="13" class="dim">正立面 · 分区名义尺寸 / 单位 mm</text><rect x="90" y="95" width="720" height="292.5" rx="0" fill="#ded7c9" stroke="#747e72" stroke-width="1.3"/><path d="M90 75 L810 75" fill="none" stroke="#93a097" stroke-width="1" stroke-dasharray=""/><text x="450" y="66" text-anchor="middle" font-size="14" class="">1600</text><path d="M66 95 L66 387.5" fill="none" stroke="#93a097" stroke-width="1" stroke-dasharray=""/><text x="55" y="241.25" text-anchor="end" font-size="13" class="">650</text><rect x="93" y="98" width="354" height="286.5" rx="0" fill="#f6f3eb" stroke="#9a9d92" stroke-width="1.3"/><rect x="95" y="243.5" width="350" height="135.9" rx="0" fill="#eef0e9" stroke="#b5bbae" stroke-width="1.3"/><text x="270" y="315.45" text-anchor="middle" font-size="14" class="">毛巾 / 清洁备品</text><text x="442" y="257.5" text-anchor="end" font-size="10" class="dim">302</text><rect x="95" y="103.1" width="350" height="140.4" rx="0" fill="#f9f8f2" stroke="#b5bbae" stroke-width="1.3"/><text x="270" y="177.3" text-anchor="middle" font-size="14" class="">绕管 U 形抽屉</text><text x="442" y="117.1" text-anchor="end" font-size="10" class="dim">312</text><path d="M90 407.5 L450 407.5" fill="none" stroke="#93a097" stroke-width="1" stroke-dasharray=""/><text x="270" y="429.5" text-anchor="middle" font-size="14" class="">800</text><rect x="453" y="98" width="354" height="286.5" rx="0" fill="#f6f3eb" stroke="#9a9d92" stroke-width="1.3"/><rect x="455" y="243.5" width="350" height="135.9" rx="0" fill="#eef0e9" stroke="#b5bbae" stroke-width="1.3"/><text x="630" y="315.45" text-anchor="middle" font-size="14" class="">毛巾 / 洗漱备品</text><text x="802" y="257.5" text-anchor="end" font-size="10" class="dim">302</text><rect x="455" y="103.1" width="350" height="140.4" rx="0" fill="#f9f8f2" stroke="#b5bbae" stroke-width="1.3"/><text x="630" y="177.3" text-anchor="middle" font-size="14" class="">剃须 / 护肤分格</text><text x="802" y="117.1" text-anchor="end" font-size="10" class="dim">312</text><path d="M450 407.5 L810 407.5" fill="none" stroke="#93a097" stroke-width="1" stroke-dasharray=""/><text x="630" y="429.5" text-anchor="middle" font-size="14" class="">800</text><text x="90" y="460.5" text-anchor="start" font-size="14" class="">深度 550 mm · 柜底离地 200 mm</text><text x="90" y="483.5" text-anchor="start" font-size="12" class="dim">分区高度含结构占位；板厚、五金、管线与净空须深化，非生产下料图。</text></svg>