<svg xmlns="http://www.w3.org/2000/svg" viewBox="0 0 900 650" role="img"><title>electronic 抽屉俯视净尺寸图</title><style>text{font-family:system-ui,-apple-system,"PingFang SC","Microsoft YaHei",sans-serif;fill:#253630}.dim{fill:#68756d;font-size:13px}</style><rect width="100%" height="100%" fill="#fbfcfa"/><text x="60" y="38" text-anchor="start" font-size="18" class="">抽屉俯视 / 内部净尺寸 · mm</text><rect x="80" y="95" width="200.64" height="176" rx="2" fill="#eee8dc" stroke="#9b9e8f" stroke-width="1.3"/><text x="180.32" y="178" text-anchor="middle" font-size="16" class="">短线 / 转接头</text><text x="180.32" y="203" text-anchor="middle" font-size="13" class="dim">228 × 200</text><rect x="285.92" y="95" width="200.64" height="176" rx="2" fill="#eee8dc" stroke="#9b9e8f" stroke-width="1.3"/><text x="386.24" y="178" text-anchor="middle" font-size="16" class="">充电器</text><text x="386.24" y="203" text-anchor="middle" font-size="13" class="dim">228 × 200</text><rect x="491.84" y="95" width="205.92" height="176" rx="2" fill="#eee8dc" stroke="#9b9e8f" stroke-width="1.3"/><text x="594.8" y="178" text-anchor="middle" font-size="16" class="">读卡器 / U盘</text><text x="594.8" y="203" text-anchor="middle" font-size="13" class="dim">234 × 200</text><rect x="80" y="276.28" width="200.64" height="258.72" rx="2" fill="#eee8dc" stroke="#9b9e8f" stroke-width="1.3"/><text x="180.32" y="400.64" text-anchor="middle" font-size="16" class="">长线 / 魔术贴</text><text x="180.32" y="425.64" text-anchor="middle" font-size="13" class="dim">228 × 294</text><rect x="285.92" y="276.28" width="200.64" height="258.72" rx="2" fill="#eee8dc" stroke="#9b9e8f" stroke-width="1.3"/><text x="386.24" y="400.64" text-anchor="middle" font-size="16" class="">移动硬盘</text><text x="386.24" y="425.64" text-anchor="middle" font-size="13" class="dim">228 × 294</text><rect x="491.84" y="276.28" width="205.92" height="258.72" rx="2" fill="#eee8dc" stroke="#9b9e8f" stroke-width="1.3"/><text x="594.8" y="400.64" text-anchor="middle" font-size="16" class="">小工具</text><text x="594.8" y="425.64" text-anchor="middle" font-size="13" class="dim">234 × 294</text><text x="450" y="590" text-anchor="middle" font-size="16" class="">净宽 702 × 净深 500 · 分隔板厚 6</text><text x="450" y="620" text-anchor="middle" font-size="14" class="">靠近身体的一侧 ↓</text></svg>