<svg xmlns="http://www.w3.org/2000/svg" viewBox="0 0 1200 1130" role="img"><title>个人安全屋概念平面 / tv</title><style>text{font-family:system-ui,-apple-system,"PingFang SC","Microsoft YaHei",sans-serif;fill:#253630}.dim{fill:#68756d;font-size:13px}</style><rect width="100%" height="100%" fill="#fbfcfa"/><g transform="translate(60 90) scale(.098)"><rect x="0" y="0" width="11000" height="9200" fill="#f5f6f0" stroke="#8e998e" stroke-width="14"/><rect x="0" y="3600" width="5400" height="5600" fill="#F0EBE2" stroke="#8e998e" stroke-width="14"/><rect x="0" y="0" width="3600" height="3600" fill="#EDEDE7" stroke="#8e998e" stroke-width="14"/><rect x="3720" y="1520" width="1680" height="2080" fill="#F0EDE7" stroke="#8e998e" stroke-width="14"/><rect x="3720" y="0" width="1680" height="1400" fill="#E5E9E9" stroke="#8e998e" stroke-width="14"/><rect x="5520" y="0" width="1100" height="6020" fill="#F8F7F4" stroke="#8e998e" stroke-width="14"/><rect x="6740" y="0" width="4260" height="2800" fill="#ECEFEA" stroke="#8e998e" stroke-width="14"/><rect x="6740" y="2920" width="1080" height="2200" fill="#E3EDE6" stroke="#8e998e" stroke-width="14"/><rect x="6740" y="5120" width="1080" height="900" fill="#F4F3ED" stroke="#8e998e" stroke-width="14"/><rect x="7940" y="2920" width="3060" height="3100" fill="#E4ECEE" stroke="#8e998e" stroke-width="14"/><rect x="5520" y="6140" width="5480" height="3060" fill="#EDE9E4" stroke="#8e998e" stroke-width="14"/><rect x="3600" y="0" width="120" height="3600" fill="#677469" stroke="#677469" stroke-width="14"/><rect x="3720" y="1400" width="500" height="120" fill="#677469" stroke="#677469" stroke-width="14"/><rect x="5020" y="1400" width="380" height="120" fill="#677469" stroke="#677469" stroke-width="14"/><rect x="5400" y="0" width="120" height="1700" fill="#677469" stroke="#677469" stroke-width="14"/><rect x="5400" y="2700" width="120" height="1100" fill="#677469" stroke="#677469" stroke-width="14"/><rect x="5400" y="6020" width="120" height="3180" fill="#677469" stroke="#677469" stroke-width="14"/><rect x="6620" y="0" width="120" height="1500" fill="#677469" stroke="#677469" stroke-width="14"/><rect x="6620" y="2400" width="120" height="520" fill="#677469" stroke="#677469" stroke-width="14"/><rect x="6740" y="2800" width="4260" height="120" fill="#677469" stroke="#677469" stroke-width="14"/><rect x="7820" y="2920" width="120" height="2200" fill="#677469" stroke="#677469" stroke-width="14"/><rect x="5520" y="6020" width="1100" height="120" fill="#677469" stroke="#677469" stroke-width="14"/><rect x="7940" y="6020" width="3060" height="120" fill="#677469" stroke="#677469" stroke-width="14"/><rect x="3720" y="1640" width="450" height="1800" fill="#d5cbb6" stroke="#8e998e" stroke-width="14"/><text x="3945.0" y="2600.0" font-size="140" text-anchor="middle" style="fill:#314337">C01</text><rect x="225" y="5450" width="550" height="1100" fill="#d5cbb6" stroke="#8e998e" stroke-width="14"/><text x="500.0" y="6060.0" font-size="140" text-anchor="middle" style="fill:#314337">C02</text><rect x="6840" y="0" width="3000" height="650" fill="#d5cbb6" stroke="#8e998e" stroke-width="14"/><text x="8340.0" y="385.0" font-size="140" text-anchor="middle" style="fill:#314337">C03</text><rect x="5520" y="6320" width="600" height="2800" fill="#d5cbb6" stroke="#8e998e" stroke-width="14"/><text x="5820.0" y="7780.0" font-size="140" text-anchor="middle" style="fill:#314337">C04</text><rect x="0" y="800" width="650" height="2800" fill="#d5cbb6" stroke="#8e998e" stroke-width="14"/><text x="325.0" y="2260.0" font-size="140" text-anchor="middle" style="fill:#314337">C05</text><rect x="0" y="0" width="1500" height="750" fill="#d5cbb6" stroke="#8e998e" stroke-width="14"/><text x="750.0" y="435.0" font-size="140" text-anchor="middle" style="fill:#314337">C05A</text><rect x="1500" y="0" width="2100" height="600" fill="#d5cbb6" stroke="#8e998e" stroke-width="14"/><text x="2550.0" y="360.0" font-size="140" text-anchor="middle" style="fill:#314337">C06</text><rect x="9400" y="2920" width="1600" height="550" fill="#d5cbb6" stroke="#8e998e" stroke-width="14"/><text x="10200.0" y="3255.0" font-size="140" text-anchor="middle" style="fill:#314337">C07</text><rect x="7070" y="2920" width="750" height="2200" fill="#d5cbb6" stroke="#8e998e" stroke-width="14"/><text x="7445.0" y="4080.0" font-size="140" text-anchor="middle" style="fill:#314337">C08</text><rect x="3960" y="0" width="1200" height="600" fill="#d5cbb6" stroke="#8e998e" stroke-width="14"/><text x="4560.0" y="360.0" font-size="140" text-anchor="middle" style="fill:#314337">C09</text><defs><marker id="viewarrow" markerWidth="6" markerHeight="6" refX="5" refY="3" orient="auto"><path d="M0 0 L6 3 L0 6" fill="#647d92"/></marker></defs><rect x="4200" y="4800" width="1150" height="3000" fill="#bbc4b7" stroke="#8e998e" stroke-width="14"/><rect x="3250" y="6700" width="2100" height="1100" fill="#bbc4b7" stroke="#8e998e" stroke-width="14"/><rect x="5100" y="4950" width="200" height="2600" fill="#9daf9f" stroke="#8e998e" stroke-width="14"/><text x="4670" y="5700" font-size="180" text-anchor="middle" style="fill:#314337">S01</text><text x="4670" y="6020" font-size="140" text-anchor="middle" style="fill:#314337">固定深座</text><text x="4100" y="7240" font-size="150" text-anchor="middle" style="fill:#314337">长贵妃榻</text><text x="4300" y="7920" font-size="140" text-anchor="middle" style="fill:#314337">固定 L 形 / 总宽 3000</text><rect x="850" y="4600" width="1000" height="3600" fill="#e1ecd9" stroke="#8e998e" stroke-width="14"/><text x="1350" y="8050" font-size="135" text-anchor="middle" style="fill:#314337">通路 1000</text><rect x="4415" y="4295" width="450" height="350" fill="#d8d4c8" stroke="#8e998e" stroke-width="14"/><text x="4640" y="4510" font-size="120" text-anchor="middle" style="fill:#314337">T02</text><rect x="7700" y="6500" width="500" height="400" fill="#e1dccf" stroke="#8e998e" stroke-width="14"/><text x="7950.0" y="6750.0" font-size="135" text-anchor="middle" style="fill:#314337">床头几</text><rect x="10400" y="6500" width="500" height="400" fill="#e1dccf" stroke="#8e998e" stroke-width="14"/><text x="10650.0" y="6750.0" font-size="135" text-anchor="middle" style="fill:#314337">床头几</text><rect x="8260" y="6320" width="1980" height="2180" fill="#e1dccf" stroke="#8e998e" stroke-width="14"/><text x="9250.0" y="7460.0" font-size="135" text-anchor="middle" style="fill:#314337">床架</text><rect x="8350" y="6440" width="1800" height="2000" fill="#e1dccf" stroke="#8e998e" stroke-width="14"/><text x="9250.0" y="7490.0" font-size="135" text-anchor="middle" style="fill:#314337">床垫</text><rect x="10100" y="800" width="900" height="1800" fill="#e1dccf" stroke="#8e998e" stroke-width="14"/><text x="10550.0" y="1750.0" font-size="135" text-anchor="middle" style="fill:#314337">工作台</text><rect x="9400" y="1500" width="650" height="650" fill="#e1dccf" stroke="#8e998e" stroke-width="14"/><text x="9725.0" y="1875.0" font-size="135" text-anchor="middle" style="fill:#314337">工作椅</text><rect x="7940" y="2920" width="1200" height="1200" fill="#d8e1d9" stroke="#8e998e" stroke-width="14"/><text x="8540.0" y="3570.0" font-size="135" text-anchor="middle" style="fill:#314337">淋浴</text><rect x="10200" y="4320" width="800" height="1700" fill="#e1dccf" stroke="#8e998e" stroke-width="14"/><text x="10600.0" y="5220.0" font-size="135" text-anchor="middle" style="fill:#314337">浴缸</text><rect x="10250" y="3520" width="660" height="680" fill="#e1dccf" stroke="#8e998e" stroke-width="14"/><text x="10580.0" y="3910.0" font-size="135" text-anchor="middle" style="fill:#314337">马桶</text><text x="10050" y="3110" font-size="120" text-anchor="middle" style="fill:#314337">C07M / 镜柜</text><text x="3230" y="425" font-size="120" text-anchor="middle" style="fill:#314337">T01 停放</text><rect x="190" y="5375" width="30" height="1250" fill="#33423c" stroke="#8e998e" stroke-width="14"/><text x="500" y="6850" font-size="125" text-anchor="middle" style="fill:#314337">移动电视</text><text x="5840" y="5300" font-size="125" text-anchor="middle" style="fill:#314337">开敞连接</text><text x="7250" y="6200" font-size="120" text-anchor="middle" style="fill:#314337">入口 1320</text><path d="M0 950 L0 2650" stroke="#6591a2" stroke-width="45"/><path d="M11000 750 L11000 2700" stroke="#6591a2" stroke-width="45"/><path d="M11000 6500 L11000 8850" stroke="#6591a2" stroke-width="45"/><path d="M900 9200 L4900 9200" stroke="#6591a2" stroke-width="45"/><text x="2850" y="9020" font-size="140" text-anchor="middle" style="fill:#314337">露台推拉门 / 入口</text><polyline points="500,6000 600,6000 700,6000 800,6000 900,6000 1000,6000 1100,6000 1200,6000 1300,6000 1400,6000 1500,6000 1600,6000 1700,6000 1800,6000 1900,6000 2000,6000 2100,6000 2200,6000 2300,6000 2400,6000 2500,6000 2600,6000 2700,6000 2800,6000 2900,6000 3000,6000 3100,6000 3200,6000 3300,6000 3400,6000 3500,6000 3600,6000 3600,6000 3600,5900 3600,5900 3600,5800 3600,5700 3600,5600 3600,5500 3600,5400 3600,5300 3600,5200 3600,5100 3600,5000 3600,4900 3600,4800 3600,4700 3600,4600 3600,4500 3600,4400 3600,4400 3600,4300 3700,4300 3700,4300 3700,4200 3800,4200 3900,4200 4000,4200 4100,4200 4200,4200 4300,4200 4400,4200 4500,4200 4600,4200 4700,4200 4800,4200 4900,4200 5000,4200 5100,4200 5200,4200 5200,4300 5300,4300 5300,4400 5400,4400 5500,4400 5500,4500 5600,4500 5700,4500 5700,4600 5800,4600 5900,4600 5900,4700 6000,4700 6000,4800 6100,4800 6100,4900 6100,5000 6100,5100 6100,5200 6100,5300 6100,5400 6200,5400 6300,5400 6400,5400 6400,5500 6500,5500 6600,5500 6600,5600 6700,5600 6700,5700 6800,5700 6900,5700 6900,5800 7000,5800 7100,5800 7100,5900 7100,5900 7100,6000 7100,6000 7100,6100 7100,6200 7100,6200 7100,6300 7100,6400 7100,6500 7100,6600 7100,6700 7100,6800 7100,6900 7100,7000 7100,7100 7100,7200 7100,7300 7100,7400 7100,7500 7100,7600 7100,7700 7100,7800 7200,7800 7300,7800 7400,7800 7400,7800 7400,7800 7400,7800 7400,7800 7400,7800 7400,7800 7400,7800 7400,7850 7400,7900 7400,7950 7400,8000 7400,8050 7400,8100 7400,8150 7400,8200 7400,8250 7400,8300 7400,8350 7400,8400 7400,8450 7400,8500 7400,8550 7400,8600 7400,8650 7400,8700 7400,8750 7400,8800 7400,8850 7450,8850 7500,8850 7550,8850 7600,8850 7650,8850 7700,8850 7750,8850 7800,8850 7850,8850 7900,8850 7950,8850 8000,8850 8050,8850 8100,8850 8150,8850 8200,8850 8250,8850 8300,8850 8350,8850 8400,8850 8450,8850 8500,8850 8550,8850 8600,8850 8650,8850 8700,8850 8750,8850 8800,8850 8850,8850 8900,8850 8950,8850 9000,8850 9050,8850 9100,8850 9150,8850 9200,8850 9250,8850" fill="none" stroke="#466c98" stroke-width="25" stroke-dasharray="0"/><rect x="-125" y="5700" width="1250" height="600" transform="rotate(90 500 6000)" fill="none" stroke="#466c98" stroke-width="12" opacity=".6"/><rect x="2275" y="5700" width="1250" height="600" transform="rotate(90 2900 6000)" fill="none" stroke="#466c98" stroke-width="12" opacity=".6"/><rect x="2975" y="4200" width="1250" height="600" transform="rotate(60 3600 4500)" fill="none" stroke="#466c98" stroke-width="12" opacity=".6"/><rect x="4675" y="4100" width="1250" height="600" transform="rotate(30 5300 4400)" fill="none" stroke="#466c98" stroke-width="12" opacity=".6"/><rect x="5975" y="5200" width="1250" height="600" transform="rotate(30 6600 5500)" fill="none" stroke="#466c98" stroke-width="12" opacity=".6"/><rect x="6475" y="6800" width="1250" height="600" transform="rotate(75 7100 7100)" fill="none" stroke="#466c98" stroke-width="12" opacity=".6"/><rect x="6775" y="7850" width="1250" height="600" transform="rotate(0 7400 8150)" fill="none" stroke="#466c98" stroke-width="12" opacity=".6"/><rect x="7275" y="8550" width="1250" height="600" transform="rotate(0 7900 8850)" fill="none" stroke="#466c98" stroke-width="12" opacity=".6"/><rect x="8475" y="8550" width="1250" height="600" transform="rotate(0 9100 8850)" fill="none" stroke="#466c98" stroke-width="12" opacity=".6"/><polyline points="500,6000 500,5900 500,5800 500,5700 500,5600 500,5500 500,5400 500,5300 500,5200 500,5100 500,5000 500,4900 500,4800 500,4700 500,4600 500,4500 500,4400 500,4300 600,4300 700,4300 800,4300 900,4300 1000,4300 1000,4200 1000,4100 1000,4000 1000,3900 1000,3800 1000,3700 1000,3600 1000,3500 1000,3400 1000,3300 1000,3200 1000,3100 1000,3000 1000,2900 1000,2800 1100,2800 1200,2800 1300,2800 1400,2800 1500,2800 1600,2800 1700,2800 1800,2800 1900,2800 2000,2800 2100,2800 2200,2800 2300,2800 2400,2800 2500,2800 2600,2800 2700,2800" fill="none" stroke="#a17742" stroke-width="25" stroke-dasharray="90"/><rect x="-125" y="5700" width="1250" height="600" transform="rotate(90 500 6000)" fill="none" stroke="#a17742" stroke-width="12" opacity=".6"/><rect x="-125" y="5100" width="1250" height="600" transform="rotate(90 500 5400)" fill="none" stroke="#a17742" stroke-width="12" opacity=".6"/><rect x="-125" y="4500" width="1250" height="600" transform="rotate(90 500 4800)" fill="none" stroke="#a17742" stroke-width="12" opacity=".6"/><rect x="-25" y="4000" width="1250" height="600" transform="rotate(90 600 4300)" fill="none" stroke="#a17742" stroke-width="12" opacity=".6"/><rect x="375" y="3800" width="1250" height="600" transform="rotate(90 1000 4100)" fill="none" stroke="#a17742" stroke-width="12" opacity=".6"/><rect x="375" y="3200" width="1250" height="600" transform="rotate(90 1000 3500)" fill="none" stroke="#a17742" stroke-width="12" opacity=".6"/><rect x="375" y="2600" width="1250" height="600" transform="rotate(90 1000 2900)" fill="none" stroke="#a17742" stroke-width="12" opacity=".6"/><rect x="875" y="2500" width="1250" height="600" transform="rotate(90 1500 2800)" fill="none" stroke="#a17742" stroke-width="12" opacity=".6"/><rect x="1475" y="2500" width="1250" height="600" transform="rotate(90 2100 2800)" fill="none" stroke="#a17742" stroke-width="12" opacity=".6"/><rect x="2075" y="2500" width="1250" height="600" transform="rotate(90 2700 2800)" fill="none" stroke="#a17742" stroke-width="12" opacity=".6"/><g transform="translate(500 6000) rotate(90)"><rect x="-550" y="-275" width="1100" height="550" fill="#d1def0" stroke="#466c98" stroke-width="22"/><path d="M-625 -290H625" stroke="#263e59" stroke-width="36"/></g><text x="500" y="5240" font-size="140" text-anchor="middle" style="fill:#314337">客厅常驻</text><g transform="translate(2700 2800) rotate(90)"><rect x="-550" y="-275" width="1100" height="550" fill="#d1def0" stroke="#466c98" stroke-width="22"/><path d="M-625 -290H625" stroke="#263e59" stroke-width="36"/></g><text x="2700" y="1800" font-size="140" text-anchor="middle" style="fill:#314337">用餐临时</text><g transform="translate(9250 8850) rotate(0)"><rect x="-550" y="-275" width="1100" height="550" fill="#d1def0" stroke="#466c98" stroke-width="22"/><path d="M-625 -290H625" stroke="#263e59" stroke-width="36"/></g><text x="9250" y="9180" font-size="140" text-anchor="middle" style="fill:#314337">床尾临时</text><rect x="1100" y="1950" width="650" height="450" fill="#e2d2b8" stroke="#8e998e" stroke-width="14"/><text x="1425" y="2230" font-size="120" text-anchor="middle" style="fill:#314337">T01 用餐</text><text x="2300" y="8650" font-size="225" text-anchor="middle" style="fill:#314337">客厅</text><text x="1900" y="1500" font-size="225" text-anchor="middle" style="fill:#314337">轻厨房</text><text x="4820" y="3100" font-size="225" text-anchor="middle" style="fill:#314337">玄关</text><text x="4600" y="1000" font-size="225" text-anchor="middle" style="fill:#314337">设备间</text><text x="8030" y="1120" font-size="225" text-anchor="middle" style="fill:#314337">工作室</text><text x="6750" y="8550" font-size="225" text-anchor="middle" style="fill:#314337">卧室</text><text x="9640" y="5280" font-size="225" text-anchor="middle" style="fill:#314337">卫浴</text><text x="6050" y="3460" font-size="130" text-anchor="middle" style="fill:#314337">1100</text><text x="6050" y="-360" font-size="230" text-anchor="middle" style="fill:#314337">入户 ↓</text><text x="5500" y="-690" font-size="170" text-anchor="middle" style="fill:#314337">内包络 11000 × 9200 mm</text><rect x="900" y="9320" width="3200" height="430" fill="#dce6d2" stroke="#8e998e" stroke-width="14"/><text x="2500" y="9600" font-size="170" text-anchor="middle" style="fill:#314337">露台另计</text><defs><marker id="arrow" markerWidth="6" markerHeight="6" refX="5" refY="3" orient="auto"><path d="M0 0 L6 3 L0 6" fill="#296b54"/></marker></defs></g><text x="60" y="1098" text-anchor="start" font-size="15" class="">概念布局，非实测户型。蓝箭头为视角；L 形为固定沙发占位；路线表示连接，非导航轨迹。</text></svg>